<?xml version="1.0" encoding="utf-8"?>
<!-- Generator: Adobe Illustrator 24.0.2, SVG Export Plug-In . SVG Version: 6.00 Build 0)  -->
<svg version="1.1" id="Layer_1" xmlns="http://www.w3.org/2000/svg" xmlns:xlink="http://www.w3.org/1999/xlink" x="0px" y="0px"
	 viewBox="0 0 500 500" style="enable-background:new 0 0 500 500;" xml:space="preserve">
<style type="text/css">
	.st0{fill:#EC2B25;}
</style>
<path class="st0" d="M499.76,249.78c0,49.49-14.68,97.87-42.17,139.01c-27.49,41.15-66.57,73.22-112.3,92.16
	c-45.72,18.94-96.03,23.89-144.57,14.24c-48.54-9.65-93.12-33.49-128.12-68.48C37.61,391.72,13.78,347.13,4.13,298.6
	c-9.65-48.54-4.7-98.85,14.24-144.57c18.94-45.72,51.01-84.8,92.16-112.29c41.15-27.49,89.53-42.17,139.01-42.17
	c66.34,0.07,129.94,26.46,176.85,73.36C473.3,119.84,499.69,183.44,499.76,249.78z M37.81,249.78c0,41.88,12.42,82.81,35.68,117.63
	c23.26,34.82,56.33,61.96,95.02,77.98c38.69,16.02,81.26,20.22,122.33,12.05c41.07-8.17,78.8-28.33,108.41-57.94
	c29.61-29.61,49.77-67.34,57.94-108.41c8.17-41.07,3.98-83.64-12.05-122.33c-16.03-38.69-43.16-71.75-77.98-95.02
	c-34.82-23.26-75.75-35.68-117.63-35.68c-56.13,0.06-109.95,22.39-149.64,62.08S37.88,193.65,37.81,249.78z M332.16,197.67
	l-82.62,82.64l-82.62-82.64c-1.79-1.79-3.91-3.21-6.25-4.18c-2.34-0.97-4.84-1.47-7.37-1.47s-5.03,0.5-7.37,1.47
	c-2.34,0.97-4.46,2.39-6.25,4.18c-1.79,1.79-3.21,3.91-4.18,6.25c-0.97,2.34-1.47,4.84-1.47,7.37c0,2.53,0.5,5.03,1.47,7.37
	c0.97,2.34,2.39,4.46,4.18,6.25l96.24,96.24c1.79,1.79,3.91,3.21,6.25,4.18c2.34,0.97,4.84,1.47,7.37,1.47
	c2.53,0,5.03-0.5,7.37-1.47c2.34-0.97,4.46-2.39,6.25-4.18l96.24-96.24c1.79-1.79,3.21-3.91,4.18-6.25
	c0.97-2.34,1.47-4.84,1.47-7.37c0-2.53-0.5-5.03-1.47-7.37c-0.97-2.34-2.39-4.46-4.18-6.25c-1.79-1.79-3.91-3.21-6.25-4.18
	c-2.34-0.97-4.84-1.47-7.37-1.47s-5.03,0.5-7.37,1.47C336.07,194.46,333.95,195.88,332.16,197.67z"/>
</svg>
