<?xml version="1.0" encoding="utf-8"?>
<!-- Generator: Adobe Illustrator 24.0.2, SVG Export Plug-In . SVG Version: 6.00 Build 0)  -->
<svg version="1.1" id="Layer_1" xmlns="http://www.w3.org/2000/svg" xmlns:xlink="http://www.w3.org/1999/xlink" x="0px" y="0px"
	 viewBox="0 0 500 500" style="enable-background:new 0 0 500 500;" xml:space="preserve">
<style type="text/css">
	.st0{fill:#EC2B25;}
	.st1{display:none;fill:#FFFFFF;}
	.st2{fill:#FFFFFF;}
</style>
<path class="st0" d="M249.76,1.76L249.76,1.76c136.86,0,247.8,110.94,247.8,247.8l0,0c0,136.86-110.94,247.8-247.8,247.8l0,0
	c-136.86,0-247.8-110.94-247.8-247.8l0,0C1.96,112.7,112.9,1.76,249.76,1.76z"/>
<path class="st1" d="M338.26,105.75c-2.93,0-5.75,1.17-7.82,3.24c-2.07,2.07-3.24,4.89-3.24,7.82v44.25H172.32v-44.25
	c0-2.93-1.17-5.75-3.24-7.82c-2.07-2.07-4.89-3.24-7.82-3.24c-2.93,0-5.75,1.17-7.82,3.24c-2.07,2.07-3.24,4.89-3.24,7.82v265.5
	c0,2.93,1.17,5.75,3.24,7.82c2.07,2.07,4.89,3.24,7.82,3.24c2.93,0,5.75-1.17,7.82-3.24c2.07-2.07,3.24-4.89,3.24-7.82v-44.25H327.2
	v44.25c0,2.93,1.17,5.75,3.24,7.82c2.07,2.07,4.89,3.24,7.82,3.24c2.93,0,5.75-1.17,7.82-3.24c2.07-2.07,3.24-4.89,3.24-7.82v-265.5
	c0-2.93-1.17-5.75-3.24-7.82S341.19,105.75,338.26,105.75z M327.2,183.18v55.31H172.32v-55.31H327.2z M172.32,315.94v-55.31H327.2
	v55.31H172.32z"/>
<path class="st2" d="M358.55,213.41c0.01-18.32-4.61-36.34-13.43-52.4c-8.82-16.06-21.55-29.62-37.02-39.44
	s-33.16-15.57-51.44-16.71s-36.56,2.34-53.13,10.15c-16.57,7.81-30.9,19.67-41.66,34.5s-17.59,32.13-19.87,50.31
	s0.07,36.63,6.83,53.66c6.76,17.02,17.72,32.06,31.85,43.72v94.09c0,1.68,0.43,3.34,1.25,4.82c0.82,1.47,2,2.71,3.44,3.6
	c1.43,0.89,3.07,1.39,4.75,1.47c1.68,0.08,3.36-0.28,4.87-1.03l54.87-27.37l54.88,27.43c1.38,0.66,2.88,0.99,4.41,0.98
	c2.62,0,5.13-1.04,6.99-2.89c1.85-1.85,2.89-4.37,2.89-6.99V297.2c12.36-10.18,22.32-22.98,29.15-37.46
	C355.01,245.25,358.55,229.43,358.55,213.41z M160.91,213.41c0-17.59,5.22-34.79,14.99-49.41c9.77-14.63,23.66-26.03,39.91-32.76
	c16.25-6.73,34.13-8.49,51.39-5.06c17.25,3.43,33.1,11.9,45.54,24.34c12.44,12.44,20.91,28.29,24.34,45.54
	c3.43,17.25,1.67,35.13-5.06,51.39c-6.73,16.25-18.13,30.14-32.76,39.91c-14.63,9.77-31.82,14.99-49.41,14.99
	c-23.58-0.03-46.19-9.41-62.86-26.08C170.32,259.6,160.94,236.99,160.91,213.41z M299.26,375.3l-45-22.49
	c-1.37-0.69-2.89-1.05-4.42-1.05s-3.05,0.36-4.42,1.05l-44.98,22.49v-65.08c15.3,7.82,32.23,11.89,49.41,11.89
	s34.11-4.08,49.41-11.89V375.3z M249.85,282.59c13.68,0,27.06-4.06,38.43-11.66c11.38-7.6,20.24-18.4,25.48-31.04
	c5.24-12.64,6.61-26.55,3.94-39.97c-2.67-13.42-9.26-25.74-18.93-35.42c-9.67-9.67-22-16.26-35.42-18.93
	c-13.42-2.67-27.33-1.3-39.97,3.94c-12.64,5.24-23.44,14.1-31.04,25.48c-7.6,11.38-11.66,24.75-11.66,38.43
	c0.02,18.34,7.31,35.92,20.28,48.89C213.93,275.27,231.51,282.57,249.85,282.59z M249.85,164c9.77,0,19.33,2.9,27.45,8.33
	c8.13,5.43,14.46,13.15,18.2,22.17c3.74,9.03,4.72,18.96,2.81,28.55c-1.91,9.58-6.61,18.39-13.52,25.3
	c-6.91,6.91-15.71,11.62-25.3,13.52c-9.58,1.91-19.52,0.93-28.55-2.81c-9.03-3.74-16.74-10.07-22.17-18.2
	c-5.43-8.13-8.33-17.68-8.33-27.45c0-13.11,5.21-25.67,14.47-34.94C224.18,169.21,236.74,164,249.85,164z"/>
</svg>
