<?xml version="1.0" encoding="utf-8"?>
<!-- Generator: Adobe Illustrator 24.0.2, SVG Export Plug-In . SVG Version: 6.00 Build 0)  -->
<svg version="1.1" id="Layer_1" xmlns="http://www.w3.org/2000/svg" xmlns:xlink="http://www.w3.org/1999/xlink" x="0px" y="0px"
	 viewBox="0 0 500 500" style="enable-background:new 0 0 500 500;" xml:space="preserve">
<style type="text/css">
	.st0{fill:#EC2B25;}
	.st1{fill:#FFFFFF;}
</style>
<path class="st0" d="M249.76,1.76L249.76,1.76c136.86,0,247.8,110.94,247.8,247.8l0,0c0,136.86-110.94,247.8-247.8,247.8l0,0
	c-136.86,0-247.8-110.94-247.8-247.8l0,0C1.96,112.7,112.9,1.76,249.76,1.76z"/>
<path class="st1" d="M338.26,105.75c-2.93,0-5.75,1.17-7.82,3.24c-2.07,2.07-3.24,4.89-3.24,7.82v44.25H172.32v-44.25
	c0-2.93-1.17-5.75-3.24-7.82c-2.07-2.07-4.89-3.24-7.82-3.24c-2.93,0-5.75,1.17-7.82,3.24c-2.07,2.07-3.24,4.89-3.24,7.82v265.5
	c0,2.93,1.17,5.75,3.24,7.82c2.07,2.07,4.89,3.24,7.82,3.24c2.93,0,5.75-1.17,7.82-3.24c2.07-2.07,3.24-4.89,3.24-7.82v-44.25H327.2
	v44.25c0,2.93,1.17,5.75,3.24,7.82c2.07,2.07,4.89,3.24,7.82,3.24c2.93,0,5.75-1.17,7.82-3.24c2.07-2.07,3.24-4.89,3.24-7.82v-265.5
	c0-2.93-1.17-5.75-3.24-7.82S341.19,105.75,338.26,105.75z M327.2,183.18v55.31H172.32v-55.31H327.2z M172.32,315.94v-55.31H327.2
	v55.31H172.32z"/>
</svg>
